<svg xmlns="http://www.w3.org/2000/svg" viewBox="0 0 64 64" role="img" aria-label="Prasanna B favicon">
  <defs>
    <linearGradient id="bg" x1="0" y1="0" x2="1" y2="1">
      <stop offset="0%" stop-color="#0b0b0b" />
      <stop offset="100%" stop-color="#1a1a1a" />
    </linearGradient>
    <linearGradient id="accent" x1="0" y1="0" x2="1" y2="1">
      <stop offset="0%" stop-color="#E10600" />
      <stop offset="100%" stop-color="#ff4d4d" />
    </linearGradient>
  </defs>
  <rect width="64" height="64" rx="16" fill="url(#bg)" />
  <path d="M14 18h34l-8 28H10z" fill="url(#accent)" opacity="0.15" />
  <circle cx="32" cy="32" r="22" fill="none" stroke="url(#accent)" stroke-width="2.5" />
  <path d="M20 42V22h10.5c4.4 0 7 2.5 7 6.2 0 3.8-2.6 6.3-7 6.3H26v7.5zm6-11.6h3.8c2 0 3.2-1 3.2-2.6s-1.2-2.6-3.2-2.6H26z" fill="#ffffff" />
  <path d="M36.4 42V22h6.4c4.8 0 7.6 2.6 7.6 6.8 0 4.3-2.9 7-7.7 7h-2.3V42zm6-11.6h1.3c2.3 0 3.6-1 3.6-3s-1.3-3-3.6-3h-1.3z" fill="#ffffff" opacity="0.95" />
</svg>
